<?xml version="1.0" standalone="no"?>
<!DOCTYPE svg PUBLIC "-//W3C//DTD SVG 20010904//EN"
 "http://www.w3.org/TR/2001/REC-SVG-20010904/DTD/svg10.dtd">
<svg version="1.0" xmlns="http://www.w3.org/2000/svg"
 width="512.000000pt" height="512.000000pt" viewBox="0 0 512.000000 512.000000"
 preserveAspectRatio="xMidYMid meet">
<metadata>
Created by potrace 1.14, written by Peter Selinger 2001-2017
</metadata>
<g transform="translate(0.000000,512.000000) scale(0.100000,-0.100000)"
fill="#000000" stroke="none">
<path d="M0 2560 l0 -2560 2560 0 2560 0 0 1172 0 1173 -225 -225 -225 -225 0
-722 0 -723 -2110 0 -2110 0 0 2110 0 2110 2110 0 2110 0 0 -432 0 -433 225
225 225 225 0 432 0 433 -2560 0 -2560 0 0 -2560z"/>
<path d="M2335 4055 c-329 -51 -602 -191 -841 -429 -220 -221 -349 -457 -415
-766 -33 -151 -33 -448 -1 -596 42 -196 119 -384 216 -528 25 -38 46 -71 46
-75 0 -3 -136 -142 -302 -308 l-303 -303 315 0 315 0 147 147 146 146 79 -50
c245 -157 479 -230 773 -240 182 -6 321 10 482 58 181 53 391 166 538 287 30
25 400 390 823 811 l767 765 0 321 0 320 -952 -951 c-618 -616 -973 -964
-1011 -988 -89 -58 -233 -122 -327 -147 -118 -31 -340 -38 -463 -15 -129 25
-295 89 -362 140 -19 14 19 54 883 919 l903 903 -113 109 c-250 240 -433 352
-700 429 -185 53 -456 71 -643 41z m510 -469 c50 -14 137 -49 194 -77 l104
-51 -734 -734 c-404 -404 -738 -733 -744 -731 -5 2 -31 46 -57 98 -119 236
-141 535 -57 794 120 372 408 632 800 720 46 10 112 14 234 11 149 -3 181 -6
260 -30z"/>
</g>
</svg>
